<mxfile host="Electron" agent="Mozilla/5.0 (Windows NT 10.0; Win64; x64) AppleWebKit/537.36 (KHTML, like Gecko) draw.io/24.7.8 Chrome/128.0.6613.36 Electron/32.0.1 Safari/537.36" version="24.7.8">
  <diagram name="Сторінка-1" id="iy9vx47T42_K8qADPBee">
    <mxGraphModel dx="941" dy="644" grid="1" gridSize="10" guides="1" tooltips="1" connect="1" arrows="1" fold="1" page="1" pageScale="1" pageWidth="827" pageHeight="1169" math="0" shadow="0">
      <root>
        <mxCell id="0" />
        <mxCell id="1" parent="0" />
        <mxCell id="TMj1NFWqkkSYKw1bOMkX-3" value="" style="edgeStyle=orthogonalEdgeStyle;rounded=0;orthogonalLoop=1;jettySize=auto;html=1;" edge="1" parent="1" source="TMj1NFWqkkSYKw1bOMkX-1" target="TMj1NFWqkkSYKw1bOMkX-2">
          <mxGeometry relative="1" as="geometry" />
        </mxCell>
        <mxCell id="TMj1NFWqkkSYKw1bOMkX-1" value="Start" style="strokeWidth=2;html=1;shape=mxgraph.flowchart.start_1;whiteSpace=wrap;" vertex="1" parent="1">
          <mxGeometry x="340" y="30" width="130" height="60" as="geometry" />
        </mxCell>
        <mxCell id="TMj1NFWqkkSYKw1bOMkX-5" value="" style="edgeStyle=orthogonalEdgeStyle;rounded=0;orthogonalLoop=1;jettySize=auto;html=1;" edge="1" parent="1" source="TMj1NFWqkkSYKw1bOMkX-2" target="TMj1NFWqkkSYKw1bOMkX-4">
          <mxGeometry relative="1" as="geometry" />
        </mxCell>
        <mxCell id="TMj1NFWqkkSYKw1bOMkX-2" value="cin&amp;gt;&amp;gt;n,n" style="shape=parallelogram;perimeter=parallelogramPerimeter;whiteSpace=wrap;html=1;fixedSize=1;strokeWidth=2;" vertex="1" parent="1">
          <mxGeometry x="345" y="170" width="120" height="60" as="geometry" />
        </mxCell>
        <mxCell id="TMj1NFWqkkSYKw1bOMkX-7" value="" style="edgeStyle=orthogonalEdgeStyle;rounded=0;orthogonalLoop=1;jettySize=auto;html=1;" edge="1" parent="1" source="TMj1NFWqkkSYKw1bOMkX-4" target="TMj1NFWqkkSYKw1bOMkX-6">
          <mxGeometry relative="1" as="geometry" />
        </mxCell>
        <mxCell id="TMj1NFWqkkSYKw1bOMkX-4" value="S=n*m" style="whiteSpace=wrap;html=1;strokeWidth=2;" vertex="1" parent="1">
          <mxGeometry x="345" y="310" width="120" height="60" as="geometry" />
        </mxCell>
        <mxCell id="TMj1NFWqkkSYKw1bOMkX-9" value="" style="edgeStyle=orthogonalEdgeStyle;rounded=0;orthogonalLoop=1;jettySize=auto;html=1;" edge="1" parent="1" source="TMj1NFWqkkSYKw1bOMkX-6" target="TMj1NFWqkkSYKw1bOMkX-8">
          <mxGeometry relative="1" as="geometry" />
        </mxCell>
        <mxCell id="TMj1NFWqkkSYKw1bOMkX-11" value="" style="edgeStyle=orthogonalEdgeStyle;rounded=0;orthogonalLoop=1;jettySize=auto;html=1;" edge="1" parent="1" source="TMj1NFWqkkSYKw1bOMkX-6" target="TMj1NFWqkkSYKw1bOMkX-10">
          <mxGeometry relative="1" as="geometry" />
        </mxCell>
        <mxCell id="TMj1NFWqkkSYKw1bOMkX-6" value="s%2==0" style="rhombus;whiteSpace=wrap;html=1;strokeWidth=2;" vertex="1" parent="1">
          <mxGeometry x="365" y="440" width="80" height="80" as="geometry" />
        </mxCell>
        <mxCell id="TMj1NFWqkkSYKw1bOMkX-8" value="cout&amp;lt;&amp;lt;&quot;Dragon&quot;" style="shape=parallelogram;perimeter=parallelogramPerimeter;whiteSpace=wrap;html=1;fixedSize=1;strokeWidth=2;" vertex="1" parent="1">
          <mxGeometry x="460" y="585" width="120" height="60" as="geometry" />
        </mxCell>
        <mxCell id="TMj1NFWqkkSYKw1bOMkX-13" value="" style="edgeStyle=orthogonalEdgeStyle;rounded=0;orthogonalLoop=1;jettySize=auto;html=1;entryX=0.5;entryY=0;entryDx=0;entryDy=0;exitX=0.5;exitY=1;exitDx=0;exitDy=0;" edge="1" parent="1" source="TMj1NFWqkkSYKw1bOMkX-10" target="TMj1NFWqkkSYKw1bOMkX-12">
          <mxGeometry relative="1" as="geometry" />
        </mxCell>
        <mxCell id="TMj1NFWqkkSYKw1bOMkX-10" value="cout&amp;lt;&amp;lt;&quot;Imp&quot;" style="shape=parallelogram;perimeter=parallelogramPerimeter;whiteSpace=wrap;html=1;fixedSize=1;strokeWidth=2;" vertex="1" parent="1">
          <mxGeometry x="210" y="585" width="120" height="60" as="geometry" />
        </mxCell>
        <mxCell id="TMj1NFWqkkSYKw1bOMkX-12" value="End" style="ellipse;whiteSpace=wrap;html=1;strokeWidth=2;" vertex="1" parent="1">
          <mxGeometry x="340" y="750" width="130" height="50" as="geometry" />
        </mxCell>
        <mxCell id="TMj1NFWqkkSYKw1bOMkX-14" style="edgeStyle=orthogonalEdgeStyle;rounded=0;orthogonalLoop=1;jettySize=auto;html=1;exitX=0.5;exitY=1;exitDx=0;exitDy=0;" edge="1" parent="1" source="TMj1NFWqkkSYKw1bOMkX-8" target="TMj1NFWqkkSYKw1bOMkX-12">
          <mxGeometry relative="1" as="geometry">
            <mxPoint x="410" y="740" as="targetPoint" />
          </mxGeometry>
        </mxCell>
        <mxCell id="TMj1NFWqkkSYKw1bOMkX-16" value="Yes" style="text;html=1;align=center;verticalAlign=middle;resizable=0;points=[];autosize=1;strokeColor=none;fillColor=none;" vertex="1" parent="1">
          <mxGeometry x="430" y="448" width="40" height="30" as="geometry" />
        </mxCell>
        <mxCell id="TMj1NFWqkkSYKw1bOMkX-18" value="No" style="text;html=1;align=center;verticalAlign=middle;resizable=0;points=[];autosize=1;strokeColor=none;fillColor=none;" vertex="1" parent="1">
          <mxGeometry x="325" y="448" width="40" height="30" as="geometry" />
        </mxCell>
      </root>
    </mxGraphModel>
  </diagram>
</mxfile>
